<svg width="33" height="22" viewBox="0 0 33 22" fill="none" xmlns="http://www.w3.org/2000/svg">
<path d="M18.574 6.66894C18.574 5.86372 17.791 5.76561 17.052 5.76561L14.88 5.75147V9.15444H15.791V7.9223H16.791C17.813 7.9223 17.597 8.42788 17.613 9.15444H18.535V8.49152C18.535 8.03986 18.452 7.74994 17.924 7.58819C18.335 7.44058 18.58 7.06227 18.574 6.66894ZM16.941 7.22403H15.791V6.47272H16.958C17.241 6.47272 17.552 6.52222 17.552 6.836C17.552 7.16039 17.258 7.22403 16.941 7.22403ZM16.013 11.6187H13.085L11.918 12.7377L10.779 11.6187H7.085L7.079 15.0217H10.713L11.896 13.8921L13.029 15.0217H14.818L14.824 13.8779C15.874 13.8779 17.563 14.1033 17.563 12.7342C17.563 11.8848 16.88 11.6187 16.013 11.6187ZM10.246 14.3049H7.991V13.6269H10.007V12.9348H7.991V12.3214H10.308L11.302 13.3131L10.246 14.3049ZM13.902 14.707L12.496 13.3273L13.902 11.982V14.707ZM16.002 13.185H14.824V12.3205H16.018C16.329 12.3205 16.585 12.4337 16.585 12.7333C16.585 13.0471 16.329 13.185 16.002 13.185ZM14.246 6.47272V5.75589H11.163V9.15886H14.246V8.45705H12.085V7.77911H14.185V7.08702H12.085V6.4736L14.246 6.47272ZM21.702 12.5371C21.702 11.7319 20.919 11.6187 20.197 11.6187H18.008L18.003 15.0217H18.925L18.931 13.7798H19.909C20.52 13.7798 20.731 13.8779 20.731 14.4569L20.726 15.0217H21.648L21.654 14.3446C21.654 13.9071 21.554 13.6031 21.043 13.4413C21.471 13.2893 21.699 12.911 21.704 12.538L21.702 12.5371ZM20.08 13.0869H18.93V12.3205H20.097C20.38 12.3205 20.691 12.37 20.691 12.6838C20.691 13.0223 20.391 13.0869 20.08 13.0869ZM10.48 9.15886V5.75589H8.947L7.853 8.06372L6.647 5.75589H5.142V8.98208L3.581 5.75589H2.22L0.57 9.15886H1.564L1.92 8.40755H3.837L4.192 9.15886H6.07V6.49747L7.403 9.15886H8.214L9.547 6.49747V9.15886H10.48ZM2.246 7.70044L2.868 6.34544L3.507 7.70044H2.246ZM28.769 15.5025V15.2816C28.169 15.5564 28.552 15.5025 20.063 15.5025C20.063 14.2651 20.069 14.3287 20.063 14.2651C19.969 14.2598 19.885 14.2598 19.541 14.2598C19.541 15.1393 19.535 14.5939 19.535 15.5025H17.335C17.335 14.9086 17.34 14.7512 17.34 14.0689C16.784 14.3632 16.074 14.3826 15.435 14.3729C15.435 15.0951 15.429 14.7804 15.429 15.5025H12.712C12.429 15.2223 12.562 15.3505 11.856 14.6478C11.678 14.8193 11.145 15.3302 10.962 15.5025H6.406V10.9699H11.023C11.301 11.2448 11.179 11.122 11.884 11.8149C12.062 11.6435 12.562 11.1564 12.756 10.9699H15.978C16.523 10.9699 16.978 11.0636 17.328 11.2448V10.9699C20.345 10.9699 20.9 10.901 21.534 11.2201V10.9699H25.879V11.2254C26.512 10.8869 26.968 10.9699 29.484 10.9699V11.2157C30.056 10.9258 30.406 10.9602 32.501 10.9699V2.35733C32.5007 1.7322 32.2197 1.13274 31.7196 0.690705C31.2195 0.248671 30.5413 0.000234263 29.834 0H3.167C2.45975 0.000234263 1.78154 0.248671 1.28144 0.690705C0.781337 1.13274 0.500265 1.7322 0.5 2.35733V7.74906L1.783 5.10181H3.989C4.228 5.59767 4.078 5.28389 4.489 6.13773V5.10181H7.045C7.206 5.40675 7.662 6.28003 7.817 6.57525C8.139 5.90792 8.378 5.40145 8.517 5.10181H14.239C14.239 5.09739 14.878 5.10181 14.883 5.10181C17.311 5.11153 17.861 5.06292 18.461 5.36167V5.10181H20.678V5.55878C21.1 5.25914 21.672 5.10181 22.384 5.10181H23.917C23.917 5.12656 24.022 5.11683 24.045 5.11683H25.845C26.078 5.59767 25.99 5.41117 26.334 6.12889V5.11683H28.74C29.012 5.50928 28.684 5.02845 29.362 6.02017V5.11683H31.579V9.63439H29.268C28.968 9.19245 29.19 9.52656 28.534 8.5587V9.63439H25.601C25.245 8.90783 25.595 9.61936 25.234 8.88309H24.178C23.945 9.37453 24.056 9.13853 23.823 9.63439H22.334C21.651 9.63439 21.095 9.48678 20.684 9.19775V9.63439H16.99C16.973 8.95203 16.984 8.41639 16.984 8.41639C16.884 8.40225 16.795 8.40667 16.44 8.40667V9.6397H8.912V9.08019C8.773 9.35508 8.762 9.37011 8.629 9.6397H6.99C6.768 9.20217 6.829 9.32503 6.707 9.08019V9.6397H3.768C3.534 9.14383 3.646 9.37983 3.412 8.88839H2.345C2.112 9.37983 2.223 9.14383 1.99 9.6397H0.512V19.6427C0.512265 20.2678 0.793337 20.8673 1.29344 21.3093C1.79354 21.7513 2.47175 21.9998 3.179 22H29.851C30.5583 21.9998 31.2365 21.7513 31.7366 21.3093C32.2367 20.8673 32.5177 20.2678 32.518 19.6427V15.2038C31.812 15.6112 30.701 15.5034 28.768 15.5034L28.769 15.5025ZM30.785 12.3356H32.457V11.6187H30.629C29.918 11.6187 29.307 11.9422 29.307 12.6352C29.307 14.2554 31.679 13.2636 31.679 13.9805C31.679 14.2306 31.44 14.2951 31.212 14.2951H29.434L29.428 15.0217H31.206C31.673 15.0217 32.184 14.9333 32.456 14.5851V13.3184C31.873 12.6405 30.273 13.2548 30.273 12.6555C30.273 12.3709 30.529 12.3364 30.784 12.3364L30.785 12.3356ZM27.618 14.2898H25.829L25.824 15.0164H27.613C28.435 15.0164 29.069 14.7415 29.069 13.9363C29.069 12.3064 26.686 13.3865 26.686 12.6449C26.686 12.37 26.958 12.3311 27.197 12.3311H28.886V11.6143H27.042C26.331 11.6143 25.736 11.9387 25.736 12.6308C25.736 14.2509 28.108 13.2442 28.108 13.9761C28.103 14.2412 27.847 14.2898 27.619 14.2898H27.618ZM25.274 12.3205V11.6187H22.207L22.201 15.0217H25.268L25.273 14.3199L23.129 14.3049V13.6269H25.234V12.9348H23.134V12.3214L25.274 12.3205ZM22.146 7.01278C22.13 7.0225 22.068 7.12061 22.068 7.38578C22.068 7.68011 22.118 7.76408 22.129 7.77381C22.14 7.77822 22.19 7.79855 22.318 7.79855L22.724 6.96858C22.663 6.96858 22.607 6.96416 22.552 6.96416C22.241 6.96416 22.163 6.99775 22.146 7.01278ZM22.38 5.75058C21.074 5.75058 20.491 6.34014 20.491 7.48389C20.491 8.57461 21.058 9.15356 22.324 9.15356H23.391L23.746 8.40225H25.652L26.019 9.15356H27.891V6.6053L29.624 9.15356H30.935V5.76561H29.996V8.12736L28.38 5.76561H26.974V8.97678L25.424 5.76561H24.046L22.74 8.44203H22.329C21.59 8.44203 21.435 8.04428 21.435 7.46533C21.435 6.29683 22.307 6.48244 23.274 6.49747V5.75235L22.38 5.75058ZM24.719 6.34456L25.341 7.69956H24.075L24.719 6.34456ZM19.102 5.75589V9.15886H20.041V5.75589H19.102Z" fill="black"/>
</svg>
