<svg width="16" height="17" viewBox="0 0 16 17" fill="none" xmlns="http://www.w3.org/2000/svg">
<path d="M14.1597 16.5H14.0551C1.96278 15.8046 0.245861 5.60154 0.00586143 2.48769C-0.0134769 2.24559 0.0151467 2.00205 0.0900921 1.77102C0.165038 1.54 0.284832 1.32603 0.442611 1.14139C0.60039 0.956739 0.793053 0.805039 1.00956 0.694978C1.22607 0.584918 1.46216 0.51866 1.70432 0.500001H5.09509C5.34159 0.499762 5.58248 0.573545 5.78656 0.711792C5.99064 0.85004 6.1485 1.04638 6.23971 1.27539L7.17509 3.57692C7.26515 3.80064 7.2875 4.0459 7.23937 4.28221C7.19123 4.51853 7.07472 4.73549 6.90432 4.90615L5.59355 6.22923C5.7983 7.39277 6.35551 8.46533 7.1898 9.30182C8.02408 10.1383 9.09518 10.6983 10.2582 10.9062L11.5936 9.58308C11.7668 9.41456 11.9858 9.30077 12.2233 9.2559C12.4607 9.21103 12.7062 9.23707 12.9289 9.33077L15.2489 10.26C15.4745 10.3541 15.6669 10.5132 15.8017 10.717C15.9365 10.9209 16.0076 11.1602 16.0059 11.4046V14.6538C16.0059 15.1435 15.8114 15.6131 15.4651 15.9593C15.1189 16.3055 14.6493 16.5 14.1597 16.5ZM1.85202 1.73077C1.68881 1.73077 1.53228 1.7956 1.41687 1.91101C1.30147 2.02642 1.23663 2.18294 1.23663 2.34615V2.39539C1.51971 6.03846 3.33509 14.6538 14.1228 15.2692C14.2036 15.2742 14.2847 15.2632 14.3612 15.2368C14.4378 15.2104 14.5084 15.1692 14.569 15.1154C14.6296 15.0617 14.679 14.9965 14.7144 14.9236C14.7498 14.8508 14.7704 14.7716 14.7751 14.6908V11.4046L12.4551 10.4754L10.6889 12.2292L10.3936 12.1923C5.03971 11.5215 4.31355 6.16769 4.31355 6.11231L4.27663 5.81692L6.02432 4.05077L5.10125 1.73077H1.85202Z" fill="white"/>
</svg>
