<svg width="36" height="22" viewBox="0 0 36 22" fill="none" xmlns="http://www.w3.org/2000/svg">
<path d="M33.6 22H2.4C1.76348 22 1.15303 21.7682 0.702944 21.3556C0.252856 20.9431 0 20.3835 0 19.8L0 2.2C0 1.61652 0.252856 1.05695 0.702944 0.644365C1.15303 0.231785 1.76348 0 2.4 0L33.6 0C34.2365 0 34.847 0.231785 35.2971 0.644365C35.7471 1.05695 36 1.61652 36 2.2V19.8C36 20.3835 35.7471 20.9431 35.2971 21.3556C34.847 21.7682 34.2365 22 33.6 22ZM28.484 18.0758H28.47C28.3332 18.0756 28.1978 18.1016 28.0725 18.1519C27.9472 18.2022 27.8346 18.2759 27.742 18.3682L27.741 18.3691C27.544 18.5669 27.4348 18.8251 27.435 19.093C27.4352 19.3608 27.5447 19.6189 27.742 19.8165L27.741 19.8156C27.923 19.9962 28.182 20.1089 28.47 20.1089H28.484C28.6129 20.117 28.7409 20.0952 28.8582 20.0456C28.9755 19.9959 29.0772 19.92 29.154 19.8248L29.155 19.8229V20.0668H29.608V17.3452H29.155V18.3627C29.0812 18.2733 28.9858 18.2008 28.8764 18.1509C28.7669 18.1009 28.6463 18.0749 28.524 18.0748L28.482 18.0758H28.484ZM24.234 18.0758H24.211C23.922 18.0758 23.661 18.1858 23.476 18.3627C23.2787 18.5632 23.1695 18.8238 23.1697 19.0939C23.1699 19.364 23.2794 19.6244 23.477 19.8248L23.476 19.8238C23.662 20.0007 23.923 20.1108 24.212 20.1108H24.236L24.28 20.1117C24.399 20.1118 24.5163 20.0859 24.6222 20.0361C24.7281 19.9864 24.8196 19.9143 24.889 19.8257L24.891 19.8238V20.0677H25.361V18.1335H24.892V18.3627C24.8163 18.2692 24.7167 18.1941 24.602 18.1441C24.4873 18.0941 24.3609 18.0706 24.234 18.0758ZM22.186 18.0758L22.144 18.0748C21.8496 18.0748 21.5673 18.182 21.3591 18.3729C21.1509 18.5637 21.034 18.8225 21.034 19.0923C21.034 19.3622 21.1509 19.621 21.3591 19.8118C21.5673 20.0026 21.8496 20.1098 22.144 20.1098L22.188 20.1089H22.186L22.227 20.1098C22.497 20.1098 22.744 20.0237 22.939 19.8788L22.937 19.8807L22.718 19.5369C22.5734 19.6418 22.3963 19.7021 22.212 19.7092H22.21C22.1181 19.7146 22.026 19.7021 21.9398 19.6723C21.8536 19.6426 21.7753 19.5965 21.71 19.5369C21.5938 19.4134 21.53 19.2557 21.5302 19.0926C21.5303 18.9295 21.5945 18.772 21.711 18.6487L21.71 18.6496C21.767 18.595 21.8355 18.5517 21.9113 18.522C21.9871 18.4924 22.0686 18.4772 22.151 18.4772H22.172H22.171C22.3699 18.4777 22.563 18.5386 22.72 18.6505L22.718 18.6487L22.937 18.3049C22.7303 18.1552 22.4744 18.0741 22.211 18.0748L22.186 18.0758ZM18.106 18.0758H18.081C17.9452 18.0755 17.8107 18.1009 17.686 18.1502C17.5613 18.1996 17.449 18.2719 17.356 18.3627C17.2562 18.4613 17.1787 18.577 17.1277 18.7032C17.0767 18.8293 17.0534 18.9634 17.059 19.0978V19.096L17.058 19.1382C17.058 19.4086 17.175 19.6542 17.364 19.8339C17.554 20.0072 17.816 20.1135 18.105 20.1135L18.139 20.1126H18.137L18.178 20.1135C18.491 20.1135 18.777 20.0099 18.999 19.8385L18.997 19.8403L18.778 19.5259C18.6102 19.6623 18.3943 19.7385 18.17 19.7404C18.0178 19.7525 17.8654 19.7104 17.7462 19.6228C17.6271 19.5352 17.5493 19.4089 17.529 19.2702V19.2674H19.107V19.096C19.121 18.8254 19.0195 18.5604 18.824 18.3572L18.825 18.3581C18.7371 18.2688 18.6297 18.1974 18.5098 18.1486C18.3899 18.0998 18.2602 18.0747 18.129 18.0748H18.107L18.106 18.0758ZM15.029 18.1335V18.5203H15.466V19.3948C15.466 19.8697 15.713 20.1108 16.2 20.1108H16.217C16.419 20.1108 16.606 20.0557 16.763 19.9623L16.759 19.9641L16.633 19.6057C16.509 19.6698 16.3694 19.7045 16.227 19.7065C16.029 19.7065 15.928 19.6011 15.928 19.3921V18.5212H16.678V18.1344H15.928V17.5478H15.459V18.1344L15.029 18.1335ZM13.062 19.536L12.859 19.866C13.106 20.0191 13.41 20.1098 13.737 20.1098H13.767H13.765L13.831 20.1117C14.07 20.1117 14.293 20.0466 14.48 19.9347L14.475 19.9375C14.5544 19.888 14.6194 19.8214 14.6644 19.7436C14.7093 19.6658 14.7329 19.5791 14.733 19.4911V19.4783C14.733 19.1556 14.486 18.9658 13.999 18.9062L13.781 18.8769C13.541 18.8393 13.421 18.7724 13.421 18.6771C13.421 18.5341 13.552 18.4626 13.812 18.4626H13.817C14.062 18.4626 14.292 18.5212 14.491 18.6239L14.484 18.6203L14.672 18.2765C14.4116 18.1345 14.1118 18.0648 13.809 18.0758H13.812L13.758 18.0748C13.5464 18.0745 13.3401 18.1358 13.169 18.2499L13.172 18.2481C13.099 18.3002 13.0399 18.367 12.9994 18.4432C12.9588 18.5195 12.9378 18.6032 12.938 18.6881V18.7073V18.7064C12.938 19.0199 13.185 19.2078 13.672 19.2647L13.875 19.294C14.124 19.3325 14.25 19.3994 14.25 19.4948C14.25 19.6561 14.09 19.7386 13.765 19.7386H13.756C13.5059 19.7391 13.2618 19.6679 13.058 19.5351L13.062 19.5378V19.536ZM11.28 18.0748H11.255C11.1193 18.0746 10.985 18.1 10.8605 18.1493C10.7359 18.1987 10.6238 18.271 10.531 18.3617C10.3385 18.5646 10.2325 18.8245 10.2327 19.0934C10.2329 19.3623 10.3392 19.6221 10.532 19.8248L10.531 19.8238C10.624 19.9146 10.7363 19.9869 10.861 20.0363C10.9857 20.0856 11.1202 20.111 11.256 20.1108H11.282C11.4109 20.117 11.5385 20.0943 11.6556 20.0446C11.7727 19.9949 11.8748 19.9198 11.953 19.8257L11.954 19.8238V20.0677H12.407V18.1335H11.954V18.3627C11.8746 18.2729 11.7743 18.2006 11.6604 18.1509C11.5466 18.1013 11.4221 18.0756 11.296 18.0758L11.28 18.0748ZM25.968 18.1326V20.0668H26.421V18.9787C26.421 18.6468 26.573 18.4782 26.874 18.4782H26.884C26.983 18.4782 27.077 18.4993 27.16 18.5368L27.156 18.535L27.296 18.1335C27.2023 18.095 27.1007 18.0754 26.998 18.0758L26.966 18.0767H26.968H26.951C26.8434 18.0766 26.7376 18.1029 26.6448 18.1529C26.552 18.2028 26.4754 18.2746 26.423 18.3608L26.421 18.3636V18.1344L25.968 18.1326ZM19.578 18.1326V20.0668H20.047V18.9787C20.047 18.6468 20.199 18.4782 20.5 18.4782H20.51C20.609 18.4782 20.703 18.4993 20.786 18.5368L20.782 18.535L20.923 18.1335C20.8251 18.095 20.7196 18.0754 20.613 18.0758H20.594H20.577C20.4695 18.0757 20.3639 18.102 20.2712 18.1519C20.1785 18.2019 20.1022 18.2737 20.05 18.3599L20.048 18.3627V18.1335L19.578 18.1326ZM8.89 18.4763C9.201 18.4763 9.359 18.6496 9.359 18.9897V20.064H9.828V18.8467L9.829 18.8164C9.82916 18.6229 9.74743 18.4369 9.601 18.2976C9.43591 18.1559 9.21814 18.0772 8.992 18.0776H8.983C8.83885 18.0691 8.69485 18.0962 8.56608 18.1562C8.4373 18.2162 8.32848 18.3068 8.251 18.4186L8.249 18.4213C8.17829 18.3094 8.07475 18.2178 7.95013 18.157C7.82552 18.0963 7.68482 18.0687 7.544 18.0776H7.546H7.537C7.41954 18.0776 7.30382 18.1036 7.19958 18.1532C7.09533 18.2028 7.00562 18.2746 6.938 18.3627L6.936 18.3645V18.1353H6.469V20.0695H6.938V18.9933C6.938 18.6514 7.112 18.48 7.454 18.48C7.765 18.48 7.923 18.6532 7.923 18.9933V20.0677H8.376V18.9933C8.376 18.6505 8.55 18.48 8.891 18.48L8.89 18.4763ZM22.906 1.83333H22.873C21.3092 1.83103 19.781 2.26102 18.488 3.06717L18.515 3.05158C19.8206 4.02174 20.7808 5.32678 21.273 6.79983L21.289 6.85483C21.525 7.53775 21.66 8.32242 21.66 9.13733C21.66 9.94308 21.527 10.7195 21.281 11.451L21.297 11.396C20.8169 12.8836 19.8517 14.2009 18.531 15.1708L18.515 15.1827C19.8116 15.9801 21.3386 16.404 22.9 16.4001C24.02 16.4001 25.085 16.1865 26.05 15.8015L25.999 15.8198C27.8904 15.0935 29.3993 13.721 30.206 11.9928L30.225 11.946C30.625 11.1118 30.858 10.1393 30.858 9.11717C30.858 8.09508 30.625 7.1225 30.205 6.2425L30.225 6.28833C29.4318 4.55296 27.9309 3.16995 26.042 2.43375L25.991 2.41633C25.0207 2.03048 23.9737 1.83292 22.916 1.83608H22.905L22.906 1.83333ZM13.094 1.83333H13.083C12.0074 1.83214 10.9433 2.03566 9.958 2.431L10.008 2.41267C8.11197 3.13554 6.59908 4.50887 5.792 6.23975L5.773 6.2865C5.373 7.12067 5.14 8.09325 5.14 9.11533C5.14 10.1374 5.373 11.11 5.793 11.99L5.773 11.9442C6.56531 13.678 8.06266 15.0611 9.948 15.8006L9.999 15.818C10.913 16.1847 11.979 16.3983 13.098 16.3983C14.6705 16.4007 16.2077 15.9709 17.511 15.1644L17.483 15.1809C16.1704 14.2152 15.2064 12.9088 14.717 11.4327L14.702 11.3786C14.46 10.6479 14.3383 9.88814 14.341 9.1245C14.3398 7.96435 14.6197 6.81843 15.1607 5.76959C15.7017 4.72076 16.4901 3.7952 17.469 3.05983L17.484 3.04883C16.1977 2.2517 14.6796 1.82755 13.127 1.8315H13.091H13.093L13.094 1.83333ZM18 3.39442C16.7364 4.28961 15.8034 5.519 15.327 6.91625L15.312 6.96667C15.071 7.66612 14.9495 8.39557 14.952 9.12908C14.952 9.89358 15.081 10.6297 15.32 11.3217L15.305 11.2704C15.7714 12.6824 16.7073 13.9255 17.982 14.8262L18 14.8381C19.2695 13.9485 20.2063 12.7195 20.681 11.3208L20.696 11.2713C20.9326 10.578 21.0516 9.85552 21.049 9.12908C21.049 8.35633 20.917 7.61292 20.674 6.91442L20.689 6.96575C20.22 5.55532 19.2876 4.31196 18.019 3.40542L18.001 3.3935L18 3.39442ZM28.546 19.7083H28.529C28.4457 19.7084 28.3632 19.6925 28.287 19.6617C28.2107 19.6309 28.1423 19.5859 28.086 19.5296C27.9694 19.4088 27.9052 19.253 27.9054 19.0917C27.9056 18.9304 27.9702 18.7748 28.087 18.6542L28.086 18.6551C28.1456 18.5981 28.2172 18.5528 28.2964 18.5219C28.3757 18.4909 28.4609 18.475 28.547 18.475C28.6331 18.475 28.7183 18.4909 28.7976 18.5219C28.8768 18.5528 28.9484 18.5981 29.008 18.6551C29.1242 18.7772 29.1881 18.9337 29.1879 19.0957C29.1878 19.2577 29.1235 19.4142 29.007 19.536L29.008 19.5351C28.9506 19.59 28.8817 19.6337 28.8054 19.6634C28.7291 19.6932 28.6469 19.7085 28.564 19.7083H28.546ZM24.281 19.7083H24.259C24.1782 19.7083 24.0982 19.6931 24.0241 19.6636C23.9499 19.6342 23.8832 19.591 23.828 19.5369C23.7158 19.4115 23.6546 19.2543 23.6548 19.0922C23.655 18.93 23.7166 18.7729 23.829 18.6478L23.828 18.6487C23.883 18.5943 23.9497 18.5509 24.0239 18.5212C24.098 18.4916 24.1781 18.4763 24.259 18.4763H24.282H24.299C24.474 18.4763 24.632 18.5451 24.741 18.6551C24.853 18.766 24.921 18.9145 24.921 19.0777V19.096V19.0951L24.922 19.1198C24.9223 19.2747 24.8608 19.4244 24.749 19.5406L24.75 19.5397C24.6934 19.5932 24.6256 19.6357 24.5507 19.6647C24.4758 19.6937 24.3953 19.7085 24.314 19.7083L24.28 19.7074H24.282L24.281 19.7083ZM11.343 19.7083L11.314 19.7092C11.2319 19.7094 11.1506 19.6943 11.0751 19.6646C10.9996 19.635 10.9315 19.5915 10.875 19.5369C10.7628 19.4115 10.7016 19.2543 10.7018 19.0922C10.702 18.93 10.7636 18.7729 10.876 18.6478L10.875 18.6487C10.9354 18.5907 11.0088 18.5453 11.0901 18.5157C11.1713 18.4862 11.2587 18.473 11.346 18.4772H11.368C11.4494 18.4772 11.53 18.4931 11.6041 18.5239C11.6783 18.5547 11.7444 18.5998 11.798 18.656L11.799 18.6569C11.9101 18.7812 11.9707 18.9369 11.9705 19.0975C11.9704 19.2582 11.9094 19.4138 11.798 19.5378L11.799 19.5369C11.7437 19.5914 11.6766 19.6349 11.6021 19.6645C11.5276 19.6942 11.4472 19.7094 11.366 19.7092H11.344H11.345L11.343 19.7083ZM18.64 18.92H17.547C17.5609 18.796 17.6244 18.6812 17.7253 18.5977C17.8261 18.5141 17.9572 18.4677 18.0931 18.4675C18.229 18.4673 18.3603 18.5132 18.4614 18.5964C18.5626 18.6796 18.6266 18.7943 18.641 18.9182L18.64 18.92Z" fill="black"/>
</svg>
