<svg width="37" height="22" viewBox="0 0 37 22" fill="none" xmlns="http://www.w3.org/2000/svg">
<path d="M34.119 22H2.91904C2.28252 22 1.67207 21.7682 1.22199 21.3556C0.771899 20.9431 0.519043 20.3835 0.519043 19.8L0.519043 2.2C0.519043 1.61652 0.771899 1.05695 1.22199 0.644365C1.67207 0.231785 2.28252 0 2.91904 0L34.119 0C34.7556 0 35.366 0.231785 35.8161 0.644365C36.2662 1.05695 36.519 1.61652 36.519 2.2V19.8C36.519 20.3835 36.2662 20.9431 35.8161 21.3556C35.366 21.7682 34.7556 22 34.119 22ZM14.551 9.46458C14.5237 9.46492 14.4967 9.47085 14.4721 9.48195C14.4476 9.49305 14.426 9.50904 14.409 9.52875C14.3696 9.56552 14.3471 9.61472 14.346 9.66625C14.346 9.6855 14.444 9.95958 14.654 10.5215L15.108 11.737L15.319 12.3035C15.5557 12.9391 15.6794 13.277 15.69 13.3173C15.2245 13.8457 14.8036 14.4059 14.431 14.993L14.393 15.0572L14.391 15.0801C14.391 15.1718 14.472 15.2469 14.573 15.2469L14.6 15.2451H14.599H15.817C15.8738 15.2448 15.9296 15.2312 15.9791 15.2057C16.0286 15.1802 16.0702 15.1436 16.1 15.0993L16.101 15.0984L20.133 9.76433C20.1542 9.73875 20.1658 9.70755 20.166 9.67542L20.165 9.66167V9.66258C20.1637 9.61111 20.1412 9.56201 20.102 9.52508C20.0852 9.50544 20.0638 9.48949 20.0395 9.47839C20.0151 9.46729 19.9883 9.46132 19.961 9.46092H18.742C18.6851 9.46125 18.6292 9.47479 18.5796 9.50028C18.5299 9.52577 18.4881 9.56237 18.458 9.60667L18.457 9.60758L16.777 11.8681L16.082 9.69375C16.0642 9.62749 16.0227 9.5686 15.9642 9.52641C15.9057 9.48423 15.8335 9.46118 15.759 9.46092L15.733 9.46183H15.734L14.551 9.46458ZM28.529 9.36283H28.503C27.745 9.36283 27.064 9.66442 26.594 10.1429L26.592 10.1448C26.078 10.6321 25.7911 11.2837 25.792 11.9616V11.9863V11.9854C25.79 12.012 25.79 12.0441 25.79 12.0753C25.79 12.5675 25.999 13.0158 26.339 13.3485L26.338 13.3476C26.5315 13.5203 26.7617 13.6545 27.0143 13.7419C27.2668 13.8293 27.5364 13.8679 27.806 13.8554H27.801C28.138 13.8518 28.458 13.7885 28.75 13.6748L28.734 13.6803C29.029 13.5786 29.279 13.42 29.476 13.2183L29.478 13.2165C29.468 13.2688 29.457 13.3128 29.444 13.3549L29.446 13.3457C29.4282 13.4019 29.4174 13.4597 29.414 13.5181V13.5199C29.414 13.6739 29.483 13.7518 29.62 13.7518H30.711C30.7536 13.7553 30.7966 13.751 30.8373 13.739C30.878 13.727 30.9157 13.7077 30.9482 13.6822C30.9806 13.6566 31.0072 13.6254 31.0262 13.5902C31.0452 13.5551 31.0564 13.5169 31.059 13.4778V13.4768L31.707 9.69375C31.7132 9.66521 31.7121 9.63577 31.704 9.60766C31.6958 9.57954 31.6808 9.5535 31.66 9.5315C31.642 9.50878 31.6184 9.4903 31.5912 9.47755C31.5639 9.46481 31.5337 9.45816 31.503 9.45817H30.3C30.153 9.45817 30.06 9.61858 30.03 9.93667C29.854 9.72963 29.6225 9.56789 29.3581 9.46717C29.0937 9.36646 28.8053 9.3302 28.521 9.36192L28.529 9.361V9.36283ZM10.566 9.36283H10.538C9.78104 9.36283 9.10004 9.66442 8.63204 10.1429L8.63004 10.1448C8.116 10.6321 7.82908 11.2837 7.83004 11.9616V11.9863V11.9854C7.8168 12.2346 7.8585 12.4836 7.95266 12.7177C8.04681 12.9517 8.19149 13.166 8.37804 13.3476L8.37704 13.3467C8.73104 13.662 9.21504 13.8563 9.74904 13.8563L9.84504 13.8545H9.84004C10.172 13.8499 10.487 13.7867 10.774 13.6739L10.758 13.6794C11.057 13.5749 11.311 13.4173 11.516 13.2165L11.517 13.2156C11.48 13.3054 11.457 13.4099 11.454 13.5181V13.5199C11.454 13.6739 11.524 13.7518 11.66 13.7518H12.75C12.7926 13.7553 12.8356 13.751 12.8763 13.739C12.917 13.727 12.9547 13.7077 12.9872 13.6822C13.0196 13.6566 13.0462 13.6254 13.0652 13.5902C13.0842 13.5551 13.0954 13.5169 13.098 13.4778V13.4768L13.747 9.69375C13.7525 9.66542 13.751 9.63634 13.7427 9.6086C13.7344 9.58085 13.7195 9.55515 13.699 9.53333C13.681 9.51062 13.6574 9.49213 13.6301 9.47938C13.6029 9.46664 13.5727 9.46 13.542 9.46H12.339C12.192 9.46 12.099 9.62042 12.07 9.9385C11.8922 9.73312 11.6603 9.57255 11.3962 9.47185C11.132 9.37115 10.8443 9.33364 10.56 9.36283L10.568 9.36192L10.566 9.36283ZM33.131 7.33333L33.115 7.33242C33.0673 7.33226 33.0213 7.34858 32.986 7.37814C32.9508 7.40769 32.9291 7.44831 32.925 7.49192L31.897 13.5227C31.8886 13.5517 31.8885 13.5822 31.8967 13.6113C31.905 13.6404 31.9213 13.667 31.944 13.6886C31.9629 13.7091 31.9865 13.7256 32.0131 13.7368C32.0398 13.7481 32.0687 13.7538 32.098 13.7537H33.148L33.18 13.7555C33.2596 13.7555 33.3359 13.7265 33.3922 13.675C33.4484 13.6234 33.48 13.5534 33.48 13.4805V13.4787L34.506 7.55242L34.507 7.53225C34.507 7.47998 34.4884 7.42915 34.454 7.38742V7.38833C34.4361 7.37077 34.4144 7.35676 34.3903 7.34714C34.3663 7.33753 34.3403 7.33252 34.314 7.33242L34.299 7.33333H33.131ZM21.461 7.33333C21.4181 7.32817 21.3745 7.33136 21.333 7.3427C21.2915 7.35403 21.2531 7.37326 21.2203 7.39912C21.1874 7.42498 21.1609 7.4569 21.1424 7.49279C21.124 7.52868 21.1139 7.56774 21.113 7.60742L20.086 13.5218C20.0807 13.5499 20.0822 13.5787 20.0903 13.6063C20.0984 13.6338 20.113 13.6594 20.133 13.6813C20.1507 13.7041 20.1741 13.7226 20.2013 13.7354C20.2284 13.7482 20.2585 13.7547 20.289 13.7546H21.594C21.6526 13.7545 21.7093 13.7359 21.7546 13.7018C21.7998 13.6677 21.8307 13.6202 21.842 13.5676V13.5658L22.127 11.8846C22.1355 11.811 22.1754 11.7434 22.238 11.6967C22.3063 11.6461 22.3892 11.6135 22.476 11.6023H22.479C22.56 11.5885 22.653 11.5812 22.748 11.5803C22.832 11.5803 22.933 11.5848 23.049 11.5949C23.1758 11.6083 23.3034 11.6144 23.431 11.6132C24.1637 11.6143 24.8697 11.3612 25.407 10.9047L25.405 10.9065C25.673 10.646 25.8799 10.338 26.013 10.0014C26.1462 9.66481 26.2027 9.30679 26.179 8.94942V8.95675C26.2006 8.72041 26.1564 8.48294 26.0506 8.26652C25.9447 8.0501 25.7808 7.86181 25.574 7.71925L25.57 7.7165C25.0929 7.43989 24.5339 7.30571 23.97 7.33242H23.976L21.461 7.33333ZM3.47904 7.33333C3.43721 7.32922 3.3949 7.33322 3.35487 7.34507C3.31483 7.35692 3.27796 7.37635 3.24665 7.40211C3.21534 7.42788 3.19029 7.45938 3.17313 7.4946C3.15597 7.52981 3.14708 7.56793 3.14704 7.6065V7.60833L2.11904 13.5227C2.11368 13.5508 2.11511 13.5796 2.12323 13.6072C2.13135 13.6348 2.14597 13.6603 2.16604 13.6822C2.18371 13.705 2.20711 13.7235 2.23426 13.7363C2.26142 13.7491 2.29153 13.7557 2.32204 13.7555H3.52604C3.56897 13.7607 3.6126 13.7575 3.65409 13.7461C3.69558 13.7348 3.73399 13.7156 3.76683 13.6897C3.79967 13.6638 3.82619 13.6319 3.84466 13.596C3.86313 13.5602 3.87315 13.5211 3.87404 13.4814L4.15904 11.8873C4.16771 11.814 4.20715 11.7466 4.26904 11.6994C4.33727 11.6489 4.42018 11.6162 4.50704 11.605H4.51004C4.59853 11.5907 4.68819 11.5833 4.77804 11.583H4.77904C4.86304 11.583 4.96304 11.5876 5.07904 11.5977C5.20551 11.611 5.33275 11.6171 5.46004 11.616C6.22304 11.616 6.91704 11.3474 7.43704 10.9074L7.43504 10.9093C7.7029 10.6487 7.90976 10.3407 8.04287 10.0041C8.17598 9.66752 8.23253 9.30953 8.20904 8.95217V8.9595C8.23056 8.72316 8.18636 8.48569 8.08055 8.26927C7.97475 8.05285 7.8108 7.86456 7.60404 7.722L7.60004 7.71925C7.12494 7.44366 6.56862 7.30921 6.00704 7.33425H6.01304L3.47904 7.33333ZM28.463 12.6821L28.415 12.683C28.1595 12.6832 27.9122 12.6004 27.717 12.4493L27.719 12.4502C27.6288 12.374 27.5568 12.2814 27.5076 12.1784C27.4583 12.0753 27.433 11.9641 27.433 11.8516L27.434 11.8103V11.7856C27.434 11.4428 27.585 11.132 27.83 10.9065C28.071 10.6801 28.407 10.5398 28.779 10.5398H28.812H28.81L28.844 10.5389C29.113 10.5389 29.358 10.6297 29.546 10.7791L29.545 10.7782C29.6379 10.857 29.712 10.9526 29.7626 11.0589C29.8132 11.1652 29.8392 11.28 29.839 11.396L29.838 11.44V11.4382V11.4602C29.838 11.7984 29.685 12.1046 29.438 12.3218C29.3133 12.4358 29.1653 12.5261 29.0024 12.5876C28.8396 12.6491 28.6652 12.6806 28.489 12.6803H28.464L28.463 12.6821ZM10.484 12.6821L10.434 12.683C10.172 12.683 9.93104 12.595 9.74704 12.4493L9.74804 12.4502C9.66011 12.3731 9.59013 12.2805 9.54235 12.1779C9.49457 12.0753 9.46997 11.9649 9.47004 11.8534L9.47104 11.8103V11.7856C9.47104 11.4428 9.62204 11.132 9.86704 10.9065C10.108 10.6801 10.443 10.5398 10.815 10.5398H10.85H10.848L10.882 10.5389C11.151 10.5389 11.396 10.6297 11.584 10.7791L11.583 10.7782C11.6756 10.8569 11.7495 10.9524 11.7999 11.0585C11.8503 11.1647 11.8762 11.2793 11.876 11.3951L11.875 11.44V11.4382V11.4703C11.875 11.8085 11.722 12.1128 11.475 12.3301C11.2187 12.5562 10.8768 12.6824 10.521 12.6821H10.484ZM22.391 10.3354L22.66 8.78533C22.6622 8.76251 22.6692 8.7403 22.6807 8.71997C22.6922 8.69965 22.708 8.6816 22.7272 8.66687C22.7463 8.65214 22.7684 8.64101 22.7922 8.63413C22.8161 8.62724 22.8412 8.62474 22.866 8.62675H23.15L23.211 8.62583C23.384 8.62583 23.555 8.63683 23.722 8.65792L23.703 8.65608C23.858 8.68175 23.993 8.74592 24.099 8.83758C24.1594 8.88992 24.2076 8.95301 24.2404 9.023C24.2732 9.09299 24.2901 9.16839 24.29 9.24458L24.289 9.27942V9.27758C24.3101 9.43073 24.2895 9.58625 24.2291 9.73034C24.1687 9.87443 24.0705 10.0026 23.943 10.1035L23.942 10.1044C23.6234 10.2711 23.2581 10.3477 22.892 10.3244H22.898L22.393 10.3391L22.391 10.3354ZM4.41204 10.3354L4.68104 8.78533C4.68305 8.76247 4.69 8.7402 4.70147 8.71981C4.71294 8.69942 4.72872 8.68133 4.74789 8.66658C4.76705 8.65182 4.78922 8.64071 4.81311 8.63387C4.837 8.62703 4.86213 8.62461 4.88704 8.62675H5.18604C5.50621 8.60525 5.82671 8.6642 6.11304 8.79725L6.10304 8.79267C6.29204 8.90358 6.35604 9.13917 6.29304 9.49483C6.28822 9.62762 6.24863 9.75739 6.17762 9.87322C6.10662 9.98904 6.00627 10.0875 5.88504 10.1603L5.88204 10.1622C5.40807 10.3222 4.90057 10.3811 4.39804 10.3345L4.41204 10.3354Z" fill="black"/>
</svg>
