<svg width="33" height="22" viewBox="0 0 33 22" fill="none" xmlns="http://www.w3.org/2000/svg">
<path d="M27.3739 9.27023C26.8799 9.27023 26.3349 9.59904 26.3349 10.3848H28.3739C28.3739 9.59904 27.8579 9.27023 27.3739 9.27023ZM20.8519 9.39839C20.3959 9.39839 20.1129 9.5407 19.9079 9.74223L19.9189 12.3347C20.1129 12.5168 20.3909 12.6635 20.8519 12.6635C21.5799 12.6635 22.0689 11.9617 22.0689 11.0239C22.0689 10.1108 21.5689 9.39397 20.8519 9.39839ZM29.3519 0H2.68494C1.97769 0.000234263 1.29949 0.248671 0.799383 0.690705C0.299281 1.13274 0.0182094 1.7322 0.0179443 2.35733V19.6427C0.0182094 20.2678 0.299281 20.8673 0.799383 21.3093C1.29949 21.7513 1.97769 21.9998 2.68494 22H29.3519C30.0592 21.9998 30.7374 21.7513 31.2375 21.3093C31.7376 20.8673 32.0187 20.2678 32.0189 19.6427V2.35733C32.0187 1.7322 31.7376 1.13274 31.2375 0.690705C30.7374 0.248671 30.0592 0.000234263 29.3519 0ZM6.80794 12.2321C6.80794 13.489 5.67994 14.2014 4.03594 14.2112C3.29416 14.2095 2.56056 14.0741 1.87994 13.8134V12.1482C2.54694 12.4628 3.38594 12.7033 4.04094 12.7033C4.47994 12.7033 4.79694 12.6007 4.79694 12.2763C4.79694 11.4419 1.79694 11.7557 1.79694 9.8262C1.79694 8.58875 2.86394 7.85159 4.46394 7.85159C5.11994 7.85159 5.76994 7.93998 6.42494 8.17067V9.81117C5.81899 9.53055 5.14786 9.37748 4.46394 9.36392C4.04694 9.36392 3.79194 9.47176 3.79194 9.74223C3.79194 10.528 6.80794 10.155 6.80794 12.2321ZM10.6299 9.45231H9.12994V11.9325C9.12994 12.9587 10.3799 12.6396 10.6299 12.5512V13.9699C10.3689 14.098 9.89094 14.2006 9.24694 14.2006C8.07494 14.2006 7.19694 13.4395 7.19694 12.408L7.20794 6.81479L9.13594 6.45151V7.96384H10.6299V9.45231ZM14.7409 9.56987C14.4909 9.49651 13.7019 9.39309 13.2349 9.93315V14.0777H11.2629V7.96384H12.9689L13.0909 8.47915C13.5519 7.72784 14.4739 7.87987 14.7349 7.96384H14.7409V9.56987ZM17.1909 14.0777H15.2069V7.96384H17.1909V14.0777ZM17.1909 7.06051L15.2069 7.43351V6.01487L17.1909 5.64186V7.06051ZM21.3079 14.2059C20.6189 14.2059 20.1969 13.946 19.9139 13.7639L19.9079 15.7376L17.9359 16.1062V7.96473H19.6749L19.7749 8.39695C20.0469 8.17597 20.5469 7.85159 21.3189 7.85159C22.7029 7.85159 24.0079 8.95645 24.0079 10.985C24.0079 13.2 22.7189 14.2006 21.3079 14.2059ZM30.2189 11.6771H26.3579C26.4469 12.492 27.1239 12.7324 27.8909 12.7324C28.6739 12.7324 29.2909 12.5848 29.8299 12.3444V13.7489C29.2909 14.0088 28.5849 14.2006 27.6409 14.2006C25.7189 14.2006 24.3739 13.1346 24.3739 11.0336C24.3739 9.25609 25.5129 7.84717 27.3909 7.84717C29.2629 7.84717 30.2409 9.25609 30.2409 11.0433C30.2409 11.2148 30.2239 11.5789 30.2189 11.6771Z" fill="black"/>
</svg>
