<svg width="37" height="22" viewBox="0 0 37 22" fill="none" xmlns="http://www.w3.org/2000/svg">
<path d="M33.619 22H2.41904C1.78252 22 1.17207 21.7682 0.721987 21.3556C0.271899 20.9431 0.019043 20.3835 0.019043 19.8L0.019043 2.2C0.019043 1.61652 0.271899 1.05695 0.721987 0.644365C1.17207 0.231785 1.78252 0 2.41904 0L33.619 0C34.2556 0 34.866 0.231785 35.3161 0.644365C35.7662 1.05695 36.019 1.61652 36.019 2.2V19.8C36.019 20.3835 35.7662 20.9431 35.3161 21.3556C34.866 21.7682 34.2556 22 33.619 22ZM17.859 13.5318L17.5 15.5943C18.4175 15.9483 19.4083 16.1144 20.403 16.0811H20.392C21.5578 16.1434 22.7122 15.842 23.667 15.2258L23.65 15.2359C24.0399 14.9733 24.3569 14.6302 24.5754 14.2345C24.794 13.8388 24.9079 13.4015 24.908 12.958V12.9443C24.908 11.9359 24.172 11.099 22.721 10.4518C22.3251 10.2767 21.9464 10.0706 21.589 9.83583L21.612 9.8505C21.5122 9.79125 21.4291 9.71119 21.3695 9.61688C21.3099 9.52257 21.2755 9.41667 21.269 9.30783V9.306C21.2765 9.19247 21.3152 9.08252 21.3815 8.98636C21.4477 8.8902 21.5394 8.81096 21.648 8.756L21.652 8.75417C21.9877 8.57666 22.3734 8.49466 22.76 8.51858H22.754H22.834L22.911 8.51767C23.555 8.51767 24.166 8.64508 24.717 8.87333L24.689 8.86325L24.923 8.97783L25.282 6.98775C24.556 6.72968 23.7837 6.59848 23.005 6.60092H22.956H22.959C21.8323 6.5557 20.7213 6.85635 19.802 7.45525L19.818 7.44517C19.436 7.69238 19.1242 8.02005 18.9089 8.40065C18.6937 8.78124 18.5812 9.20363 18.581 9.63233V9.63692C18.571 10.6067 19.333 11.4446 20.847 12.1302C21.247 12.2907 21.592 12.4868 21.901 12.7224L21.894 12.7169C21.9832 12.7857 22.0557 12.8708 22.1069 12.9668C22.158 13.0628 22.1867 13.1675 22.191 13.2743V13.2779C22.191 13.5703 22.001 13.8215 21.727 13.9343L21.722 13.9361C21.422 14.0809 21.066 14.1653 20.688 14.1653H20.642H20.644H20.569C19.712 14.1653 18.9 13.9911 18.172 13.6794L18.207 13.6932L17.864 13.5355L17.859 13.5318ZM27.984 14.5778H31.299C31.3524 14.7874 31.4567 15.2457 31.612 15.9528H34.019L31.925 6.75767H29.925C29.6391 6.73444 29.3527 6.79637 29.1082 6.93426C28.8637 7.07216 28.6743 7.27865 28.568 7.52308L28.565 7.53133L24.725 15.9528H27.445L27.991 14.5787L27.984 14.5778ZM14.91 6.75767L13.284 15.9528H15.878L17.503 6.75767H14.91ZM4.94104 8.63408L7.05104 15.9381H9.78504L13.86 6.75767H11.114L8.58004 13.0313L8.31404 11.7563L7.41004 7.53133C7.36158 7.28765 7.21175 7.07075 6.99215 6.92641C6.77256 6.78206 6.50038 6.72156 6.23304 6.75767L6.23904 6.75675H2.05204L2.02104 6.94283C5.24504 7.69358 7.36304 9.31333 8.31704 11.7553C8.02388 11.0575 7.57184 10.4251 6.99104 9.9L6.99004 9.89908C6.41946 9.36204 5.73694 8.9356 4.98304 8.64508L4.94304 8.63133L4.94104 8.63408ZM30.878 12.6867H28.718C28.864 12.3334 29.208 11.4779 29.75 10.12L29.796 9.99075L29.956 9.61858C30.022 9.46642 30.066 9.34175 30.096 9.24642L30.284 10.0338L30.877 12.683L30.878 12.6867Z" fill="black"/>
</svg>
